<svg xmlns="http://www.w3.org/2000/svg" width="13" height="15" viewBox="0 0 13 15">
  <path fill="#fff" d="M10.015 11.04V9.86c1.115 0 .978-1.05.978-2.34 0-1.29.137-2.33-.978-2.34V4.02c1.675 0 2.977 1.57 2.977 3.51 0 1.93-1.302 3.5-2.977 3.51zM3.076 10l4.912 4.01V.99L2.984 4.96V5H1c-.552 0-1 .45-1 1v3c0 .55.448 1 1 1z"/>
  <path fill="#e3e3e3" d="M10.015 11.04V9.86c1.115 0 .978-1.05.978-2.34 0-1.29.137-2.33-.978-2.34V4.02c1.675 0 2.977 1.57 2.977 3.51 0 1.93-1.302 3.5-2.977 3.51zM3.076 10l4.912 4.01V.99L2.984 4.96V5H1c-.552 0-1 .45-1 1v3c0 .55.448 1 1 1z"/>
</svg>
