<svg xmlns="http://www.w3.org/2000/svg" width="17" height="15" viewBox="0 0 17 15">
  <path fill="#fff" d="M16.535 9.59l-1.414 1.42L13 8.89l-2.121 2.12-1.415-1.42 2.122-2.12-2.122-2.12 1.415-1.41L13 6.06l2.121-2.12 1.414 1.41-2.121 2.12zM3.076 10l4.912 4.01V.99L2.984 4.96V5H1c-.552 0-1 .45-1 1v3c0 .55.448 1 1 1z"/>
  <path fill="#e3e3e3" d="M16.535 9.59l-1.414 1.42L13 8.89l-2.121 2.12-1.415-1.42 2.122-2.12-2.122-2.12 1.415-1.41L13 6.06l2.121-2.12 1.414 1.41-2.121 2.12zM3.076 10l4.912 4.01V.99L2.984 4.96V5H1c-.552 0-1 .45-1 1v3c0 .55.448 1 1 1z"/>
</svg>
