<svg xmlns="http://www.w3.org/2000/svg" width="167.4" height="47"><style type="text/css">.st0{fill:#ffffff;} .st1{fill:none;stroke:#A8E166;stroke-width:2.5;stroke-linecap:round;stroke-linejoin:round;}</style><path id="CRANE" d="M70.5 17.2c-5.7 0-10.1 4.1-10.1 9.6 0 5.3 4.2 9.6 9.5 9.7.1 0 .3 0 .4 0 2.9-.1 5.6-1.3 7.6-3.4l-2.5-2.7c-1.3 1.3-3.1 2.1-4.9 2.2-3.2 0-5.8-2.6-5.8-5.8s2.6-5.8 5.8-5.8c1.9.1 3.7 1 4.9 2.5l2.5-3c-1.9-2.1-4.6-3.2-7.4-3.3zm24.4 19h4.8l-4-6.2c2.3-1.1 3.5-3.2 3.5-6.1 0-4.2-2.8-6.6-7.7-6.6h-8.2v18.9h4.3v-5.4h4.3l3 5.4zm-7.4-8.9v-6.4h3.9c2.3 0 3.7 1.1 3.7 3.2 0 2.2-1.4 3.2-3.7 3.2h-3.9zm30.5 5.3l1.5 3.7h4.6l-8.1-19h-4.4l-8.2 18.9h4.4l1.5-3.7 8.7.1zm-1.4-3.4h-6l3-7.3 3 7.3zm29.2 7.1V17.4h-4v12.1l-9.2-12.1h-3.9v18.9h4.1V24.1l9.2 12.1 3.8.1zm21.3-15.4v-3.5h-14.4v18.9h14.7v-3.5H157v-4.2h9.1V25H157v-4.1h10.1z" class="st0"/><path d="M12.8 45.8L15.6 5l18.1 21.7-20.9 19.1zM25.7 17.1l8.2-9.8-.3 19.3M33.9 7.4l11.9 4.4L33.9 16M15.5 5L1.2 1.2l13.4 17.9M6.8 8.7l-5 6.1 12.5 9.3" class="st1"/></svg>