<svg xmlns="http://www.w3.org/2000/svg" width="20" height="17"><path fill="#fff" fill-rule="evenodd" d="M19 5s.9.45.9.45-2.9 5.8-2.9 5.8 0 .75 0 .75-12 0-12 0 0-1.76 0-1.76-2.9-5.8-2.9-5.8S3 4 3 4 0 4 0 4s0-2 0-2 4 0 4 0 0 1.76 0 1.76 2.9 5.8 2.9 5.8S6 10 6 10s9.38 0 9.38 0 2.5-5 2.5-5S17 5 17 5s0-2 0-2 3 0 3 0 0 2 0 2-1 0-1 0zm-7 3s-2 0-2 0 0-3 0-3-3 0-3 0 0-2 0-2 3 0 3 0 0-3 0-3 2 0 2 0 0 3 0 3 3 0 3 0 0 2 0 2-3 0-3 0 0 3 0 3zm-6 5c1.1 0 2 .9 2 2s-.9 2-2 2-2-.9-2-2 .9-2 2-2zm10 0c1.1 0 2 .9 2 2s-.9 2-2 2-2-.9-2-2 .9-2 2-2z"/></svg>