<svg version="1.1" id="Layer_1" xmlns="http://www.w3.org/2000/svg" xmlns:xlink="http://www.w3.org/1999/xlink" x="0px" y="0px"
	 width="65.7px" height="23.5px" viewBox="0 0 65.7 23.5" style="enable-background:new 0 0 65.7 23.5;" xml:space="preserve">
<style type="text/css">
	.st0{fill:#717171;}
	.st1{fill:none;enable-background:new    ;}
	.st2{fill:#A8E166;}
</style>
<path id="theme_by" class="st0" d="M7,1.1V0H1.1v1.1h2.3v6.2h1.2V1.1L7,1.1L7,1.1z M15.8,7.3V0h-1.2v3.2h-3.9V0H9.5v7.3h1.2v-3h3.9
	v3L15.8,7.3L15.8,7.3z M24.4,1.1V0h-5.2v7.3h5.4V6.2h-4.1v-2H24V3.1h-3.6v-2L24.4,1.1L24.4,1.1z M35.3,7.3V0h-1.5l-2.4,4.9L29,0
	h-1.5v7.3h1.2V1.9L31,6.6h0.8l2.3-4.7l0,5.5L35.3,7.3L35.3,7.3z M43.9,1.1V0h-5.2v7.3H44V6.2h-4.1v-2h3.6V3.1h-3.6v-2L43.9,1.1
	L43.9,1.1z M51.1,0v7.3h3.3c1.7,0,2.7-0.8,2.7-2c0-0.9-0.6-1.7-1.6-1.9c0.8-0.2,1.3-0.9,1.3-1.6c0-1.1-0.9-1.8-2.4-1.8L51.1,0
	L51.1,0z M52.4,1.1h1.9c0.6-0.1,1.1,0.2,1.2,0.8c0,0.1,0,0.1,0,0.2c0,0.6-0.5,1-1.1,1c-0.1,0-0.1,0-0.2,0h-1.9V1.1L52.4,1.1z
	 M52.4,4.1h1.9c1,0,1.5,0.4,1.5,1c0,0.7-0.6,1.1-1.5,1.1h-1.9V4.1L52.4,4.1z M63,4.9L65.6,0h-1.3l-2.1,3.6L60.3,0H59l2.7,4.9v2.4H63
	V4.9L63,4.9z"/>
<path class="st1" d="z"/>
<g>
	<path class="st2" d="M41.6,11c-1.6,0-3,0.6-4.1,1.7l-1.9,1.8l-1.9-1.8c-1.1-1.1-2.6-1.7-4.1-1.7c-1.6,0-3,0.6-4.1,1.7
		c-1.1,1.1-1.7,2.6-1.7,4.1s0.6,3,1.7,4.1s2.6,1.7,4.1,1.7c1.6,0,3-0.6,4.1-1.7l1.9-1.8l1.9,1.8c1.1,1.1,2.6,1.7,4.1,1.7
		s3-0.6,4.1-1.7c1.1-1.1,1.7-2.6,1.7-4.1s-0.6-3-1.7-4.1C44.6,11.6,43.1,11,41.6,11z M31.3,18.5c-0.9,0.9-2.6,0.9-3.5,0
		c-0.5-0.4-0.7-1.1-0.7-1.7c0-0.7,0.3-1.3,0.7-1.7c0.4-0.4,1.1-0.7,1.7-0.7c0.7,0,1.3,0.3,1.8,0.8l1.8,1.7L31.3,18.5z M43.3,18.5
		c-0.9,0.9-2.5,0.9-3.5,0L38,16.8l1.8-1.7c0.9-0.9,2.6-0.9,3.5,0c0.5,0.5,0.7,1.1,0.7,1.7C44.1,17.4,43.8,18,43.3,18.5z"/>
	<path class="st2" d="M57.8,11.5v7.9c0,0.2,0,0.3-0.1,0.4c0,0-0.1,0-0.1,0.1c-0.1,0-0.2-0.1-0.3-0.3c-0.2-0.4-0.6-1.2-1-2.9
		c-0.4-1.6-0.9-2.8-1.4-3.5c-0.7-1.1-1.6-1.6-2.8-1.6c-0.1,0-0.4,0-0.5,0c-0.9,0-1.6,0.2-2.2,0.5c-0.7,0.4-1,1-1,1.8v8.7h3.1v-7.9
		c0-0.2,0-0.3,0.1-0.4c0,0,0,0,0.1-0.1c0.2,0.2,0.4,0.6,0.8,1.3c0.3,0.7,0.6,1.6,1,2.8c0.4,1.4,0.7,2,0.7,2.1
		c0.3,0.7,0.7,1.2,1.3,1.6c0.6,0.4,1.2,0.5,1.9,0.5c0.1,0,0.4,0,0.5,0c0.8,0,1.6-0.2,2.1-0.6c0.6-0.4,0.9-1,0.9-1.7v-8.8H57.8z"/>
	<rect x="62.2" y="11.5" class="st2" width="3.1" height="11"/>
	<path class="st2" d="M22.7,20l-4.3-1.7h1.6c1,0,1.8-0.4,2.4-1.1c0.5-0.6,0.8-1.4,0.8-2.3s-0.3-1.7-0.8-2.3c-0.6-0.7-1.4-1-2.4-1
		h-0.5h-6.5h-0.5v2.6h0.5h6c0.3,0,0.5,0.1,0.7,0.3c0.1,0.2,0.2,0.4,0.2,0.7c0,0.2-0.1,0.4-0.3,0.5c-0.2,0.2-0.4,0.2-0.7,0.2h-3.2
		h-0.5c-1.1,0-1.6,0.1-2.2,0.7c-0.4,0.5-0.7,1.2-0.7,2.1v3.9h3.1V20l6.6,2.6C23.5,22.9,24.9,20.6,22.7,20z"/>
	<path class="st2" d="M11.2,16.9c-0.6-0.7-1.4-1.1-2.4-1.1H8.3H7.1h-1v2.4h1h0.8c0.3,0,0.5,0.1,0.7,0.3c0.1,0.2,0.2,0.4,0.2,0.7
		c0,0.3-0.1,0.5-0.2,0.7c-0.1,0.2-0.4,0.3-0.6,0.3H7.1H5.6c-0.6,0-1.1-0.4-1.5-1c-0.4-0.6-0.5-1.3-0.5-2.2c0-0.8,0.2-1.3,0.5-1.9
		c0.4-0.6,0.9-0.9,1.5-0.9h5.8v-2.6H4.7c-1.4,0-2.5,0.6-3.3,1.8c-0.8,1.1-1.1,2.3-1.1,3.8c0,1.5,0.4,2.7,1.1,3.7
		c0.8,1.1,1.9,1.7,3.3,1.7h4.2c1,0,1.8-0.4,2.4-1.1c0.5-0.6,0.8-1.4,0.8-2.3C12,18.3,11.8,17.5,11.2,16.9z"/>
</g>
</svg>
