<svg xmlns="http://www.w3.org/2000/svg" width="32" height="32" viewBox="0 0 32 32"><path fill-rule="evenodd" d="M16 32C7.16 32 0 24.84 0 16S7.16 0 16 0s16 7.16 16 16-7.16 16-16 16zm0-30C8.27 2 2 8.27 2 16s6.27 14 14 14 14-6.27 14-14S23.73 2 16 2zm1.35 14l3.36 3.37c.37.37.37.97 0 1.34-.37.38-.97.38-1.34 0L16 17.35l-3.37 3.36c-.37.38-.97.38-1.34 0-.38-.37-.38-.97 0-1.34L14.65 16l-3.36-3.37c-.38-.37-.38-.97 0-1.34.37-.38.97-.38 1.34 0L16 14.65l3.37-3.36c.37-.38.97-.38 1.34 0 .38.37.38.97 0 1.34L17.35 16z" opacity="0.5"/></svg>